/* XPM */
static char *ktorrent[] = {
/* columns rows colors chars-per-pixel */
"32 32 104 2",
"   c #2B73C1",
".  c #367CC7",
"X  c #3B7ECA",
"o  c #3E81CB",
"O  c #3C86EE",
"+  c #4286CE",
"@  c #4586D0",
"#  c #478AD2",
"$  c #4A8BD4",
"%  c #4F8FD9",
"&  c #508FD7",
"*  c #5291D7",
"=  c #5593DA",
"-  c #5995DD",
";  c #5D99DF",
":  c #699DDF",
">  c #72A2DF",
",  c #4187EA",
"<  c #438AEC",
"1  c #498DED",
"2  c #4E90EE",
"3  c #5D99EC",
"4  c #5596F1",
"5  c #5C9BF3",
"6  c #649CE2",
"7  c #6B9EE3",
"8  c #619EF5",
"9  c #66A0E4",
"0  c #6AA3E6",
"q  c #6EA5E8",
"w  c #78A7E6",
"e  c #7FABE3",
"r  c #72A6EF",
"t  c #73A9EB",
"y  c #7DADEC",
"u  c #66A1F6",
"i  c #6EA7F7",
"p  c #70A5F0",
"a  c #7FAFF2",
"s  c #7EB0F4",
"d  c #8FB2DE",
"f  c #83ACE3",
"g  c #86AFE8",
"h  c #86B0E5",
"j  c #8DB3E6",
"k  c #85B3EE",
"l  c #8BB5ED",
"z  c #92B6E5",
"x  c #97B9E6",
"c  c #9CBCE4",
"v  c #93B7E9",
"b  c #94BAEB",
"n  c #9CBEEB",
"m  c #83B3F5",
"M  c #8DB7F3",
"N  c #8EBAF7",
"B  c #89B7F9",
"V  c #8EBBF9",
"C  c #93BCF4",
"Z  c #99BEF0",
"A  c #94BEF9",
"S  c #A0BEE5",
"D  c #A0BFE8",
"F  c #96C0F7",
"G  c #9DC1F5",
"H  c #97C1F8",
"J  c #9CC4FA",
"K  c #A4C1E5",
"L  c #ACC5E4",
"P  c #AFC8E5",
"I  c #A4C3EC",
"U  c #ACC6EB",
"Y  c #AEC8EC",
"T  c #B0C6E2",
"R  c #B5CBE5",
"E  c #BACEE6",
"W  c #B4CCEC",
"Q  c #BCCFE9",
"!  c #BED0E5",
"~  c #BCD1EC",
"^  c #A4C4F2",
"/  c #AAC7F2",
"(  c #ABC9F3",
")  c #A4CAFB",
"_  c #A8CBFA",
"`  c #B3CDF2",
"'  c #BCD2F1",
"]  c #C3D3E6",
"[  c #C9D7E7",
"{  c #CDDAE7",
"}  c #C4D5EC",
"|  c #C7D8EB",
" . c #CAD9EB",
".. c #D4DDE7",
"X. c #D3DDEA",
"o. c #C2D5F1",
"O. c #C7D8F0",
"+. c #C9DAF2",
"@. c #D9E1E7",
"#. c #DDE4E9",
"$. c #E2E6EB",
"%. c #E6E9EA",
"&. c #E9EBEC",
"*. c None",
/* pixels */
"*.*.*.*.*.*.*.*.*.*.*.O p p r r r r r r p 3 *.*.*.*.*.*.*.*.*.*.",
"*.*.*.*.*.*.*.*.*.*.*., { $.#.#.#.#.#.#.#.D *.*.*.*.*.*.*.*.*.*.",
"*.*.*.*.*.*.*.*.*.*.*.< [ ....X.{ X.X...#.n *.*.*.*.*.*.*.*.*.*.",
"*.*.*.*.*.*.*.*.*.*.*.1 ] ..{ [ ] [ [ ..#.n *.*.*.*.*.*.*.*.*.*.",
"*.*.*.*.*.*.*.*.*.*.*.1 E { ] Q E Q ] [ #.b *.*.*.*.*.*.*.*.*.*.",
"*.*.*.*.*.*.*.*.*.*.*.4 R [ Q W T E E ] $.b *.*.*.*.*.*.*.*.*.*.",
"*.*.*.*.*.*.*.*.*.*.*.3 T [ E T P T E ] $.b *.*.*.*.*.*.*.*.*.*.",
"*.*.*.*.*.*.*.*.*.*.*.3 K ] E T L L R E $.l *.*.*.*.*.*.*.*.*.*.",
"*.*.*.*.*.*.*.*.*.*.*.8 c ] R T K L R R %.l *.*.*.*.*.*.*.*.*.*.",
"*.*.*.*.*.*.*.*.*.*.*.u c ] R T L L R R %.l *.*.*.*.*.*.*.*.*.*.",
"*.*.*.*.*.*.*.*.*.*.*.i d [ E E L T E R &.M *.*.*.*.*.*.*.*.*.*.",
"*.*.*.*.*.*.*.*.*.*.*.M g [ W Q P [ ! L %.k *.*.*.*.*.*.*.*.*.*.",
"*.*.*.*.*.*.*.*.*.*.$.X.G ^ Z ' #.X.] K &.a *.*.*.*.*.*.*.*.*.*.",
"*.*.*.*.*.*.*.*.*.*.X.| W m D }  .$.[ l ` B ~ %.*.*.*.*.*.*.*.*.",
"*.*.*.*.*.*.A A A H `  .W C / } [ X.( C v / Q X.J A A V *.*.*.*.",
"*.*.*.*.*.m r 6 7 f v b j v S T P U n j D K I f 7 6 7 m *.*.*.*.",
"*.*.*.*.*.*.V 9 > z K K I b K E E U n z x S c f > : m *.*.*.*.*.",
"*.*.*.*.*.*.*.F t h K U K b U ! ] ] R L U S c j e k J *.*.*.*.*.",
"*.*.*.*.*.*.*.*.V h x K U U W } [  .| ~ ~ U D v k ) *.*.*.*.*.*.",
"*.*.*.*.*.*.*.*._ N G U ( ~ ' } o.|  .o.| ` U C ) *.*.*.*.*.*.*.",
"*.*.*.*.*.*.*.*.*.) C ( ' ' O.O.o.+. .+.+.' ( J *.*.*.*.*.*.*.*.",
"*.*.*.*.*.*.*.*.*.*.J G ( ' ' ~ ~ | o.o.o.` H *.*.*.*.*.*.*.*.*.",
"*.*.*.*.*.*.*.*.*.*.*.J ( ` W W W W ' W o.J J *.*.*.*.*.*.*.*.*.",
"*.*.*.*.*.*.*.*.*.*.*.*.J / / / U U W ( ( J *.*.*.*.*.*.*.*.*.*.",
"*.*.*.*.*.*.*.*.*.*.*.*.*.J ^ I I I I ^ ) *.*.*.*.*.*.*.*.*.*.*.",
"*.*.*.*.*.*.*.*.*.*.*.*.*.A G Z Z G ^ J *.*.*.*.*.*.*.*.*.*.*.*.",
"*.*.*.*.*.*.*.*.*.*.*.*.*.*.G C M C H *.*.*.*.*.*.*.*.*.*.*.*.*.",
"*.*.*.*.*.*.*.*.*.*.*.*.*.*.*.H B H *.*.*.*.*.*.*.*.*.*.*.*.*.*.",
"*.*.*.*.*.*.*.*.*.*.*.*.*.# $ - V y $ $ *.*.*.*.*.*.*.*.*.*.*.*.",
"*.*.*.*.*.*.*.$ $ $ * - ; 6 0 q t t t 0 6 : ; = % % *.*.*.*.*.*.",
"*.*.*.*.*.*.*.. o o + $ $ * = = - = = = * % # @ + X *.*.*.*.*.*.",
"*.*.*.*.*.*.*.*.*.*.*.*.*.*.*.      *.*.*.*.*.*.*.*.*.*.*.*.*.*."
};
